<svg width="408" height="128" viewBox="0 0 408 128" fill="none"
  xmlns="http://www.w3.org/2000/svg">
  <rect width="128" height="128" rx="32" fill="#6FCF97"/>
  <path fill-rule="evenodd" clip-rule="evenodd" d="M63.9999 87.5858C76.9734 87.5858 87.5855 76.9738 87.5855 63.9996C87.5855 51.0259 76.9734 40.4138 63.9999 40.4138C51.0261 40.4138 40.414 51.0259 40.414 63.9996C40.414 76.9738 51.0261 87.5858 63.9999 87.5858ZM63.9999 95.2557C81.262 95.2557 95.2557 81.2621 95.2557 63.9996C95.2557 46.7376 81.262 32.7441 63.9999 32.7441C46.7378 32.7441 32.7441 46.7376 32.7441 63.9996C32.7441 81.2621 46.7378 95.2557 63.9999 95.2557Z" fill="#F2F2F2"/>
  <path d="M94.9302 41.8605C99.8623 41.8605 103.86 37.8623 103.86 32.9302C103.86 27.9982 99.8623 24 94.9302 24C89.9982 24 86 27.9982 86 32.9302C86 37.8623 89.9982 41.8605 94.9302 41.8605Z" fill="#F2F2F2"/>
  <rect width="128" height="128" rx="12" fill="#6FCF97"/>
  <path fill-rule="evenodd" clip-rule="evenodd" d="M63.9999 87.5858C76.9734 87.5858 87.5855 76.9738 87.5855 63.9996C87.5855 51.0259 76.9734 40.4138 63.9999 40.4138C51.0261 40.4138 40.414 51.0259 40.414 63.9996C40.414 76.9738 51.0261 87.5858 63.9999 87.5858ZM63.9999 95.2557C81.262 95.2557 95.2557 81.2621 95.2557 63.9996C95.2557 46.7376 81.262 32.7441 63.9999 32.7441C46.7378 32.7441 32.7441 46.7376 32.7441 63.9996C32.7441 81.2621 46.7378 95.2557 63.9999 95.2557Z" fill="#F2F2F2"/>
  <path d="M94.9302 41.8605C99.8623 41.8605 103.86 37.8623 103.86 32.9302C103.86 27.9982 99.8623 24 94.9302 24C89.9982 24 86 27.9982 86 32.9302C86 37.8623 89.9982 41.8605 94.9302 41.8605Z" fill="#F2F2F2"/>
  <rect width="128" height="128" rx="12" fill="#333333"/>
  <path fill-rule="evenodd" clip-rule="evenodd" d="M64 88.1475C77.2824 88.1475 88.1472 77.2828 88.1472 63.9997C88.1472 50.7171 77.2824 39.8523 64 39.8523C50.7173 39.8523 39.8525 50.7171 39.8525 63.9997C39.8525 77.2828 50.7173 88.1475 64 88.1475ZM64 96C81.6731 96 96 81.6732 96 63.9997C96 46.3267 81.6731 32 64 32C46.3269 32 32 46.3267 32 63.9997C32 81.6732 46.3269 96 64 96Z" fill="#F2F2F2"/>
  <path d="M96.0001 38.0003C99.314 38.0003 102 35.314 102 32.0001C102 28.6864 99.314 26 96.0001 26C92.6864 26 90 28.6864 90 32.0001C90 35.314 92.6864 38.0003 96.0001 38.0003Z" fill="#F2F2F2"/>
  <path d="M178.068 99V29.1818H205.614C210.909 29.1818 215.42 30.1932 219.148 32.2159C222.875 34.2159 225.716 37 227.67 40.5682C229.648 44.1136 230.636 48.2045 230.636 52.8409C230.636 57.4773 229.636 61.5682 227.636 65.1136C225.636 68.6591 222.739 71.4205 218.943 73.3977C215.17 75.375 210.602 76.3636 205.239 76.3636H187.682V64.5341H202.852C205.693 64.5341 208.034 64.0455 209.875 63.0682C211.739 62.0682 213.125 60.6932 214.034 58.9432C214.966 57.1705 215.432 55.1364 215.432 52.8409C215.432 50.5227 214.966 48.5 214.034 46.7727C213.125 45.0227 211.739 43.6705 209.875 42.7159C208.011 41.7386 205.648 41.25 202.784 41.25H192.83V99H178.068ZM254.474 29.1818V99H239.952V29.1818H254.474ZM281.04 99.9886C277.699 99.9886 274.722 99.4091 272.108 98.25C269.494 97.0682 267.426 95.3295 265.903 93.0341C264.403 90.7159 263.653 87.8295 263.653 84.375C263.653 81.4659 264.188 79.0227 265.256 77.0455C266.324 75.0682 267.778 73.4773 269.619 72.2727C271.46 71.0682 273.551 70.1591 275.892 69.5455C278.256 68.9318 280.733 68.5 283.324 68.25C286.369 67.9318 288.824 67.6364 290.688 67.3636C292.551 67.0682 293.903 66.6364 294.744 66.0682C295.585 65.5 296.006 64.6591 296.006 63.5455V63.3409C296.006 61.1818 295.324 59.5114 293.96 58.3295C292.619 57.1477 290.71 56.5568 288.233 56.5568C285.619 56.5568 283.54 57.1364 281.994 58.2955C280.449 59.4318 279.426 60.8636 278.926 62.5909L265.494 61.5C266.176 58.3182 267.517 55.5682 269.517 53.25C271.517 50.9091 274.097 49.1136 277.256 47.8636C280.438 46.5909 284.119 45.9545 288.301 45.9545C291.21 45.9545 293.994 46.2955 296.653 46.9773C299.335 47.6591 301.71 48.7159 303.778 50.1477C305.869 51.5795 307.517 53.4205 308.722 55.6705C309.926 57.8977 310.528 60.5682 310.528 63.6818V99H296.756V91.7386H296.347C295.506 93.375 294.381 94.8182 292.972 96.0682C291.562 97.2955 289.869 98.2614 287.892 98.9659C285.915 99.6477 283.631 99.9886 281.04 99.9886ZM285.199 89.9659C287.335 89.9659 289.222 89.5455 290.858 88.7045C292.494 87.8409 293.778 86.6818 294.71 85.2273C295.642 83.7727 296.108 82.125 296.108 80.2841V74.7273C295.653 75.0227 295.028 75.2955 294.233 75.5455C293.46 75.7727 292.585 75.9886 291.608 76.1932C290.631 76.375 289.653 76.5455 288.676 76.7045C287.699 76.8409 286.812 76.9659 286.017 77.0795C284.313 77.3295 282.824 77.7273 281.551 78.2727C280.278 78.8182 279.29 79.5568 278.585 80.4886C277.881 81.3977 277.528 82.5341 277.528 83.8977C277.528 85.875 278.244 87.3864 279.676 88.4318C281.131 89.4545 282.972 89.9659 285.199 89.9659ZM349.648 46.6364V57.5455H318.114V46.6364H349.648ZM325.273 34.0909H339.795V82.9091C339.795 84.25 340 85.2955 340.409 86.0455C340.818 86.7727 341.386 87.2841 342.114 87.5795C342.864 87.875 343.727 88.0227 344.705 88.0227C345.386 88.0227 346.068 87.9659 346.75 87.8523C347.432 87.7159 347.955 87.6136 348.318 87.5455L350.602 98.3523C349.875 98.5795 348.852 98.8409 347.534 99.1364C346.216 99.4545 344.614 99.6477 342.727 99.7159C339.227 99.8523 336.159 99.3864 333.523 98.3182C330.909 97.25 328.875 95.5909 327.42 93.3409C325.966 91.0909 325.25 88.25 325.273 84.8182V34.0909ZM382.205 100.023C376.909 100.023 372.33 98.8977 368.466 96.6477C364.625 94.375 361.659 91.2159 359.568 87.1705C357.477 83.1023 356.432 78.3864 356.432 73.0227C356.432 67.6136 357.477 62.8864 359.568 58.8409C361.659 54.7727 364.625 51.6136 368.466 49.3636C372.33 47.0909 376.909 45.9545 382.205 45.9545C387.5 45.9545 392.068 47.0909 395.909 49.3636C399.773 51.6136 402.75 54.7727 404.841 58.8409C406.932 62.8864 407.977 67.6136 407.977 73.0227C407.977 78.3864 406.932 83.1023 404.841 87.1705C402.75 91.2159 399.773 94.375 395.909 96.6477C392.068 98.8977 387.5 100.023 382.205 100.023ZM382.273 88.7727C384.682 88.7727 386.693 88.0909 388.307 86.7273C389.92 85.3409 391.136 83.4545 391.955 81.0682C392.795 78.6818 393.216 75.9659 393.216 72.9205C393.216 69.875 392.795 67.1591 391.955 64.7727C391.136 62.3864 389.92 60.5 388.307 59.1136C386.693 57.7273 384.682 57.0341 382.273 57.0341C379.841 57.0341 377.795 57.7273 376.136 59.1136C374.5 60.5 373.261 62.3864 372.42 64.7727C371.602 67.1591 371.193 69.875 371.193 72.9205C371.193 75.9659 371.602 78.6818 372.42 81.0682C373.261 83.4545 374.5 85.3409 376.136 86.7273C377.795 88.0909 379.841 88.7727 382.273 88.7727Z" fill="#333333"/>
</svg>
